<svg width="40" height="40" viewBox="0 0 40 40" fill="none" xmlns="http://www.w3.org/2000/svg">
<g clip-path="url(#clip0_37_667)">
<path d="M35.375 10H27.875V0.625C27.875 0.45924 27.8092 0.300269 27.6919 0.183058C27.5747 0.065848 27.4158 0 27.25 0L24.75 0C24.5842 0 24.4253 0.065848 24.3081 0.183058C24.1908 0.300269 24.125 0.45924 24.125 0.625V10H23.5C23.3342 10 23.1753 10.0658 23.0581 10.1831C22.9408 10.3003 22.875 10.4592 22.875 10.625C22.875 10.7908 22.9408 10.9497 23.0581 11.0669C23.1753 11.1842 23.3342 11.25 23.5 11.25H34.75V12.5H26C25.8342 12.5 25.6753 12.5658 25.5581 12.6831C25.4408 12.8003 25.375 12.9592 25.375 13.125C25.375 13.2908 25.4408 13.4497 25.5581 13.5669C25.6753 13.6842 25.8342 13.75 26 13.75H33.4506L32.86 21.4606C32.1881 21.2284 31.4637 21.1932 30.7725 21.3594C30.7406 21.3669 30.71 21.3762 30.6762 21.3844C30.5521 21.4174 30.4296 21.4566 30.3094 21.5019C30.2681 21.5175 30.2275 21.5319 30.1844 21.5487C30.034 21.6105 29.8878 21.6821 29.7469 21.7631C29.3983 21.5568 29.0183 21.409 28.6219 21.3256C28.5408 21.3067 28.4567 21.3042 28.3747 21.3182C28.2926 21.3322 28.2141 21.3625 28.1439 21.4073C28.0737 21.452 28.0131 21.5104 27.9658 21.5789C27.9184 21.6474 27.8853 21.7246 27.8682 21.8061C27.8511 21.8876 27.8505 21.9717 27.8664 22.0535C27.8822 22.1352 27.9143 22.2129 27.9606 22.2821C28.007 22.3513 28.0667 22.4105 28.1362 22.4563C28.2058 22.5021 28.2838 22.5335 28.3656 22.5487C28.7289 22.6267 29.0705 22.7843 29.3656 23.01C29.4741 23.092 29.6065 23.1364 29.7425 23.1364C29.8785 23.1364 30.0109 23.092 30.1194 23.01C30.2215 22.9333 30.3296 22.8647 30.4425 22.805C30.4744 22.7875 30.5081 22.775 30.5406 22.7594C30.6219 22.719 30.7054 22.6831 30.7906 22.6519C30.8256 22.6394 30.8612 22.6306 30.8962 22.62C30.9827 22.5931 31.0706 22.5708 31.1594 22.5531C31.1913 22.5469 31.2219 22.5431 31.255 22.5381C31.3502 22.5235 31.4462 22.5146 31.5425 22.5113C31.5681 22.5113 31.5944 22.5113 31.62 22.5113C31.7244 22.5106 31.8288 22.5167 31.9325 22.5294L31.9906 22.5362C32.0993 22.5525 32.2068 22.5757 32.3125 22.6056L32.3587 22.6181C32.4655 22.6511 32.5699 22.6912 32.6712 22.7381C32.6875 22.7456 32.7044 22.7506 32.72 22.7588C32.7356 22.7669 32.7431 22.7731 32.7556 22.7794L31.5344 38.75H26C25.8342 38.75 25.6753 38.8158 25.5581 38.9331C25.4408 39.0503 25.375 39.2092 25.375 39.375C25.375 39.5408 25.4408 39.6997 25.5581 39.8169C25.6753 39.9342 25.8342 40 26 40H32.1138C32.2716 40.0005 32.4238 39.9412 32.5397 39.834C32.6556 39.7269 32.7268 39.5799 32.7388 39.4225L34.0363 22.4881L34.7037 13.75H35.375C35.5408 13.75 35.6997 13.6842 35.8169 13.5669C35.9342 13.4497 36 13.2908 36 13.125V10.625C36 10.4592 35.9342 10.3003 35.8169 10.1831C35.6997 10.0658 35.5408 10 35.375 10ZM26.625 10H25.375V1.25H26.625V10Z" fill="#233163" stroke="#233163" stroke-width="0.5"/>
<path d="M23.8362 21.4706C23.7777 21.4016 23.7048 21.3461 23.6227 21.308C23.5406 21.2699 23.4511 21.2501 23.3606 21.25H23.3356C23.2456 21.2498 23.1566 21.2695 23.075 21.3075C22.7669 21.4487 22.45 21.5762 22.1375 21.7031V13.125C22.1375 12.9592 22.0716 12.8003 21.9544 12.6831C21.8372 12.5658 21.6782 12.5 21.5125 12.5H19.6331V11.875C19.6331 11.7092 19.5673 11.5503 19.4501 11.4331C19.3328 11.3158 19.1739 11.25 19.0081 11.25H17.1287V10.625C17.1287 10.4592 17.0629 10.3003 16.9457 10.1831C16.8285 10.0658 16.6695 10 16.5037 10H11.4962C11.3305 10 11.1715 10.0658 11.0543 10.1831C10.9371 10.3003 10.8712 10.4592 10.8712 10.625V11.25H8.99186C8.8261 11.25 8.66713 11.3158 8.54992 11.4331C8.4327 11.5503 8.36686 11.7092 8.36686 11.875V12.5H6.48811C6.32235 12.5 6.16338 12.5658 6.04617 12.6831C5.92896 12.8003 5.86311 12.9592 5.86311 13.125V21.715C5.53748 21.585 5.21311 21.4531 4.89623 21.3075C4.76799 21.2524 4.6258 21.2385 4.48932 21.2678C4.35285 21.297 4.22881 21.3679 4.13436 21.4706C4.07564 21.5395 4.0326 21.6204 4.00821 21.7076C3.98382 21.7948 3.97867 21.8862 3.99311 21.9756L6.84686 39.4756C6.8706 39.6221 6.94571 39.7554 7.05873 39.8516C7.17175 39.9478 7.31532 40.0006 7.46373 40.0006H20.5069C20.6552 40.0006 20.7987 39.9479 20.9117 39.8518C21.0247 39.7558 21.0999 39.6226 21.1237 39.4762L23.9775 21.9762C23.992 21.8868 23.9869 21.7952 23.9625 21.7079C23.9381 21.6206 23.895 21.5396 23.8362 21.4706ZM19.6331 13.75H20.8869V22.1569C20.6994 22.2194 20.515 22.2819 20.3244 22.3444C20.0862 22.4169 19.8569 22.4819 19.6319 22.5431L19.6331 13.75ZM17.1287 12.5H18.3831V22.8356C18.2919 22.8537 18.2044 22.8731 18.1094 22.8906L17.9219 22.925C17.6794 22.9675 17.4269 23.0088 17.1544 23.05L17.1275 23.0531L17.1287 12.5ZM14.625 11.25H15.8787V23.1875C15.7819 23.1981 15.6844 23.2113 15.5869 23.2188H15.5706C15.3994 23.2313 15.2362 23.2413 15.0806 23.25H15.0669C14.9131 23.2581 14.7662 23.265 14.625 23.2694V11.25ZM12.1212 11.875V11.25H13.375V23.2737C13.0812 23.2644 12.7662 23.2469 12.4175 23.2225H12.4006C12.3069 23.2156 12.2131 23.2031 12.1212 23.1931V11.875ZM9.61686 13.125V12.5H10.8712V23.055L10.8144 23.0487C10.5444 23.0094 10.2937 22.9681 10.0506 22.9238L9.87436 22.8912C9.78623 22.875 9.70311 22.8569 9.61686 22.8394V13.125ZM7.11311 13.75H8.36686V22.5481C8.13373 22.4856 7.89498 22.4175 7.64498 22.3412C7.46623 22.2869 7.29061 22.225 7.11311 22.1663V13.75ZM19.9756 38.75H7.99561L7.38373 35H20.5869L19.9756 38.75ZM20.7194 33.75H7.28186L6.29373 27.5H11.7156L13.5512 29.3931C13.6713 29.5101 13.8323 29.5756 14 29.5756C14.1676 29.5756 14.3286 29.5101 14.4487 29.3931L16.2844 27.5H21.7062L20.7194 33.75ZM22.0131 26.25H16.02C15.9366 26.2498 15.8539 26.2662 15.777 26.2984C15.7 26.3306 15.6303 26.3779 15.5719 26.4375L14 28.0625L12.4281 26.4375C12.3697 26.3779 12.3 26.3306 12.223 26.2984C12.146 26.2662 12.0634 26.2498 11.98 26.25H5.95748L5.40873 22.8844L5.60623 22.9625C5.82936 23.0494 6.05498 23.13 6.28123 23.2087C6.61248 23.3244 6.94561 23.4356 7.28123 23.5375C7.56186 23.6225 7.83123 23.7 8.09373 23.77C8.35623 23.84 8.62311 23.9069 8.89311 23.9694L8.95561 23.985C9.45561 24.0962 10.0031 24.1944 10.6306 24.285C10.8056 24.3106 10.9825 24.3281 11.1594 24.3475L11.6831 24.405C11.8894 24.4294 12.0962 24.4544 12.3081 24.4675C12.9387 24.5131 13.465 24.5344 13.9756 24.5344H14.0269C14.5206 24.5344 15.0319 24.5131 15.6594 24.4681C15.8825 24.4519 16.1019 24.4256 16.3212 24.3987L16.8212 24.3438C16.9925 24.3275 17.1631 24.3106 17.3319 24.2856C17.9569 24.1944 18.5075 24.0981 19.0069 23.9856L19.1431 23.9519C19.6431 23.8369 20.1431 23.7019 20.6825 23.5381C21.03 23.4331 21.37 23.3188 21.7137 23.1987C21.9294 23.1225 22.1456 23.0463 22.36 22.9631L22.5562 22.885L22.0131 26.25Z" fill="#233163" stroke="#233163" stroke-width="0.5"/>
</g>
<defs>
<clipPath id="clip0_37_667">
<rect width="40" height="40" fill="white"/>
</clipPath>
</defs>
</svg>
