<svg width="26" height="36" viewBox="0 0 26 36" fill="none" xmlns="http://www.w3.org/2000/svg">
<path d="M24.8126 5.6375C24.605 5.53221 24.3722 5.48695 24.1403 5.50683C23.9084 5.5267 23.6867 5.61092 23.5001 5.75L22.1626 6.75H17.6126V1.75C17.6126 1.41848 17.4809 1.10054 17.2465 0.866116C17.0121 0.631696 16.6941 0.5 16.3626 0.5H9.4126C9.08108 0.5 8.76313 0.631696 8.52871 0.866116C8.29429 1.10054 8.1626 1.41848 8.1626 1.75V6.75H3.5376C3.20608 6.75 2.88813 6.8817 2.65371 7.11612C2.41929 7.35054 2.2876 7.66848 2.2876 8V21.5875L1.0376 22.55C0.882352 22.6664 0.756348 22.8174 0.669564 22.991C0.582779 23.1646 0.537598 23.3559 0.537598 23.55V34.25C0.537598 34.5815 0.669293 34.8995 0.903714 35.1339C1.13813 35.3683 1.45608 35.5 1.7876 35.5H24.2501C24.5816 35.5 24.8996 35.3683 25.134 35.1339C25.3684 34.8995 25.5001 34.5815 25.5001 34.25V6.75C25.4994 6.51917 25.4348 6.29303 25.3134 6.09667C25.1921 5.9003 25.0187 5.74137 24.8126 5.6375ZM10.6626 3H15.1126V6.75H10.6626V3ZM4.7876 9.25H18.8126L4.7876 19.7125V9.25ZM23.0001 33H3.0001V24.175L23.0001 9.25V33Z" fill="#233163" stroke="white" stroke-width="0.5"/>
</svg>
