<svg width="34" height="33" viewBox="0 0 34 33" fill="none" xmlns="http://www.w3.org/2000/svg">
<path d="M31.4375 10.125H2.5625C1.83763 10.125 1.25 10.7126 1.25 11.4375V16.6875C1.25 17.4124 1.83763 18 2.5625 18H31.4375C32.1624 18 32.75 17.4124 32.75 16.6875V11.4375C32.75 10.7126 32.1624 10.125 31.4375 10.125Z" stroke="#233163" stroke-width="1.96875" stroke-linecap="round" stroke-linejoin="round"/>
<path d="M30.125 18V29.8125C30.125 30.1606 29.9867 30.4944 29.7406 30.7406C29.4944 30.9867 29.1606 31.125 28.8125 31.125H5.1875C4.8394 31.125 4.50556 30.9867 4.25942 30.7406C4.01328 30.4944 3.875 30.1606 3.875 29.8125V18" stroke="#233163" stroke-width="1.96875" stroke-linecap="round" stroke-linejoin="round"/>
<path d="M17 10.125V31.125" stroke="#233163" stroke-width="1.96875" stroke-linecap="round" stroke-linejoin="round"/>
<path d="M24.432 8.27108C22.5617 10.125 17 10.125 17 10.125C17 10.125 17 4.56327 18.8539 2.69296C19.5936 1.95325 20.5969 1.53769 21.643 1.53769C22.6891 1.53769 23.6923 1.95325 24.432 2.69296C25.1717 3.43266 25.5873 4.43592 25.5873 5.48202C25.5873 6.52812 25.1717 7.53138 24.432 8.27108Z" stroke="#233163" stroke-width="1.96875" stroke-linecap="round" stroke-linejoin="round"/>
<path d="M9.56799 8.27108C11.4383 10.125 17 10.125 17 10.125C17 10.125 17 4.56327 15.1461 2.69296C14.4064 1.95325 13.4032 1.53769 12.357 1.53769C11.3109 1.53769 10.3077 1.95325 9.56799 2.69296C8.82828 3.43266 8.41272 4.43592 8.41272 5.48202C8.41272 6.52812 8.82828 7.53138 9.56799 8.27108Z" stroke="#233163" stroke-width="1.96875" stroke-linecap="round" stroke-linejoin="round"/>
</svg>
