<svg width="28" height="30" viewBox="0 0 28 30" fill="none" xmlns="http://www.w3.org/2000/svg">
<path d="M27 30H17C16.8608 30.0006 16.7229 29.972 16.5954 29.9163C16.4678 29.8605 16.3532 29.7787 16.2591 29.676C16.165 29.5734 16.0933 29.4523 16.0487 29.3204C16.0041 29.1885 15.9875 29.0487 16 28.91L18 6.91001C18.0226 6.66069 18.1378 6.42888 18.3229 6.26039C18.5081 6.09191 18.7497 5.99899 19 6.00001H25C25.2504 5.99899 25.492 6.09191 25.6771 6.26039C25.8623 6.42888 25.9775 6.66069 26 6.91001L28 28.91C28.0126 29.0487 27.996 29.1885 27.9514 29.3204C27.9068 29.4523 27.8351 29.5734 27.741 29.676C27.6468 29.7787 27.5323 29.8605 27.4047 29.9163C27.2771 29.972 27.1393 30.0006 27 30ZM18.09 28H25.91L24.09 8.00001H19.91L18.09 28Z" fill="#233163"/>
<path d="M17 30H1.00003C0.86078 30.0006 0.722946 29.972 0.595357 29.9163C0.467768 29.8605 0.353237 29.7787 0.259098 29.676C0.16496 29.5734 0.0932897 29.4523 0.0486781 29.3204C0.00406655 29.1885 -0.0125031 29.0487 3.07388e-05 28.91L2.00003 6.91001C2.02256 6.66069 2.13778 6.42888 2.32293 6.26039C2.50808 6.09191 2.7497 5.99899 3.00003 6.00001H19C19.1393 5.99944 19.2771 6.02797 19.4047 6.08375C19.5323 6.13954 19.6468 6.22136 19.741 6.32397C19.8351 6.42658 19.9068 6.54772 19.9514 6.67963C19.996 6.81155 20.0126 6.95132 20 7.09001L18 29.09C17.9775 29.3393 17.8623 29.5711 17.6771 29.7396C17.492 29.9081 17.2504 30.001 17 30ZM2.09003 28H16.09L17.91 8.00001H3.91003L2.09003 28Z" fill="#233163"/>
<path d="M23 23H21V29H23V23Z" fill="#233163"/>
<path d="M15 12C14.7348 12 14.4804 11.8946 14.2929 11.7071C14.1054 11.5196 14 11.2652 14 11V5C14 4.20435 13.6839 3.44129 13.1213 2.87868C12.5587 2.31607 11.7956 2 11 2C10.2044 2 9.44129 2.31607 8.87868 2.87868C8.31607 3.44129 8 4.20435 8 5V11C8 11.2652 7.89464 11.5196 7.70711 11.7071C7.51957 11.8946 7.26522 12 7 12C6.73478 12 6.48043 11.8946 6.29289 11.7071C6.10536 11.5196 6 11.2652 6 11V5C6 3.67392 6.52678 2.40215 7.46447 1.46447C8.40215 0.526784 9.67392 0 11 0C12.3261 0 13.5979 0.526784 14.5355 1.46447C15.4732 2.40215 16 3.67392 16 5V11C16 11.2652 15.8946 11.5196 15.7071 11.7071C15.5196 11.8946 15.2652 12 15 12Z" fill="#233163"/>
<path d="M21 8C20.7348 8 20.4804 7.89464 20.2929 7.70711C20.1054 7.51957 20 7.26522 20 7V5C20 4.20435 19.6839 3.44129 19.1213 2.87868C18.5587 2.31607 17.7956 2 17 2C16.7348 2 16.4804 1.89464 16.2929 1.70711C16.1054 1.51957 16 1.26522 16 1C16 0.734784 16.1054 0.48043 16.2929 0.292893C16.4804 0.105357 16.7348 0 17 0C17.6566 0 18.3068 0.129329 18.9134 0.380602C19.52 0.631876 20.0712 1.00017 20.5355 1.46447C20.9998 1.92876 21.3681 2.47995 21.6194 3.08658C21.8707 3.69321 22 4.34339 22 5V7C22 7.26522 21.8946 7.51957 21.7071 7.70711C21.5196 7.89464 21.2652 8 21 8Z" fill="#233163"/>
</svg>
