<svg width="26" height="36" viewBox="0 0 26 36" fill="none" xmlns="http://www.w3.org/2000/svg">
<path d="M24.8126 5.6375C24.605 5.53221 24.3722 5.48695 24.1403 5.50683C23.9084 5.5267 23.6867 5.61092 23.5001 5.75L22.1626 6.75H17.6126V1.75C17.6126 1.41848 17.4809 1.10054 17.2465 0.866116C17.0121 0.631696 16.6941 0.5 16.3626 0.5H9.4126C9.08108 0.5 8.76313 0.631696 8.52871 0.866116C8.29429 1.10054 8.1626 1.41848 8.1626 1.75V6.75H3.5376C3.20608 6.75 2.88813 6.8817 2.65371 7.11612C2.41929 7.35054 2.2876 7.66848 2.2876 8V21.5875L1.0376 22.55C0.882352 22.6664 0.756348 22.8174 0.669564 22.991C0.582779 23.1646 0.537598 23.3559 0.537598 23.55V34.25C0.537598 34.5815 0.669293 34.8995 0.903714 35.1339C1.13813 35.3683 1.45608 35.5 1.7876 35.5H24.2501C24.5816 35.5 24.8996 35.3683 25.134 35.1339C25.3684 34.8995 25.5001 34.5815 25.5001 34.25V6.75C25.4994 6.51917 25.4348 6.29303 25.3134 6.09667C25.1921 5.9003 25.0187 5.74137 24.8126 5.6375ZM10.6626 3H15.1126V6.75H10.6626V3ZM4.7876 9.25H18.8126L4.7876 19.7125V9.25ZM23.0001 33H3.0001V24.175L23.0001 9.25V33Z" fill="#233163" stroke="white" stroke-width="0.5"/>
<path d="M12.3376 4.375C12.1868 4.54767 12.1065 4.7708 12.1126 5C12.1126 5.11983 12.1362 5.23849 12.1821 5.3492C12.228 5.45991 12.2952 5.5605 12.3799 5.64524C12.4646 5.72997 12.5652 5.79719 12.6759 5.84304C12.7866 5.8889 12.9053 5.9125 13.0251 5.9125C13.145 5.9125 13.2636 5.8889 13.3743 5.84304C13.485 5.79719 13.5856 5.72997 13.6704 5.64524C13.7551 5.5605 13.8223 5.45991 13.8682 5.3492C13.914 5.23849 13.9376 5.11983 13.9376 5C13.9438 4.7708 13.8635 4.54767 13.7126 4.375C13.6239 4.28197 13.5172 4.20792 13.3991 4.15732C13.2809 4.10672 13.1537 4.08063 13.0251 4.08063C12.8966 4.08063 12.7694 4.10672 12.6512 4.15732C12.533 4.20792 12.4264 4.28197 12.3376 4.375ZM13.0251 5.3125C12.9852 5.31265 12.9456 5.30448 12.909 5.28849C12.8724 5.2725 12.8395 5.24906 12.8125 5.21966C12.7854 5.19026 12.7648 5.15554 12.7519 5.11772C12.739 5.0799 12.7342 5.03981 12.7376 5C12.7357 4.91856 12.7622 4.83899 12.8126 4.775C12.8405 4.74704 12.8736 4.72484 12.9101 4.7097C12.9466 4.69456 12.9857 4.68677 13.0251 4.68677C13.0646 4.68677 13.1037 4.69456 13.1402 4.7097C13.1766 4.72484 13.2098 4.74704 13.2376 4.775C13.2881 4.83899 13.3146 4.91856 13.3126 5C13.3165 5.042 13.311 5.08433 13.2967 5.12399C13.2823 5.16365 13.2594 5.19967 13.2296 5.22949C13.1998 5.25931 13.1638 5.28221 13.1241 5.29656C13.0845 5.3109 13.0421 5.31635 13.0001 5.3125H13.0251Z" fill="#233163"/>
</svg>
