<svg width="28" height="36" viewBox="0 0 28 36" fill="none" xmlns="http://www.w3.org/2000/svg">
<path d="M27.412 15.5726L24.36 3.52017C24.2429 2.99316 24.0044 2.50132 23.6638 2.08439C23.3232 1.66746 22.8902 1.33712 22.3996 1.12007C21.909 0.903017 21.3746 0.805333 20.8397 0.834911C20.3047 0.864488 19.7841 1.0205 19.32 1.29033L8.68004 7.50001C8.03028 7.87066 7.51887 8.44568 7.22404 9.13711L0.756038 24.3508C0.581989 24.7711 0.492371 25.222 0.492371 25.6774C0.492371 26.1329 0.581989 26.5838 0.756038 27.004C0.923262 27.4276 1.17293 27.8132 1.49031 28.138C1.8077 28.4628 2.18638 28.7202 2.60404 28.8952L16.296 34.8226C16.7325 35.0001 17.1975 35.0958 17.668 35.1048C18.3384 35.098 18.9923 34.894 19.5493 34.518C20.1064 34.1419 20.5424 33.6102 20.804 32.9879L27.272 17.7742C27.5699 17.0788 27.6194 16.3007 27.412 15.5726ZM25.2 16.8428L18.62 32.0565C18.5695 32.1917 18.4909 32.3146 18.3895 32.4168C18.2881 32.519 18.1662 32.5982 18.032 32.6492C17.899 32.7051 17.7562 32.7339 17.612 32.7339C17.4679 32.7339 17.3251 32.7051 17.192 32.6492L3.50004 26.6936C3.361 26.649 3.23223 26.5767 3.12136 26.4811C3.01048 26.3855 2.91973 26.2684 2.85448 26.1369C2.78922 26.0053 2.75079 25.8619 2.74144 25.7151C2.73209 25.5683 2.75201 25.4212 2.80004 25.2823L9.38004 10.0686C9.46505 9.85111 9.62379 9.67109 9.82804 9.56049L20.496 3.4355C20.6518 3.32514 20.8376 3.26599 21.028 3.26614C21.1669 3.24073 21.3092 3.24073 21.448 3.26614C21.6055 3.3281 21.746 3.42699 21.858 3.55461C21.97 3.68223 22.0502 3.83491 22.092 4.00001L25.2 16.1653C25.2707 16.3855 25.2707 16.6226 25.2 16.8428Z" fill="#233163"/>
<path d="M17.976 14.5282C19.3833 14.5282 20.524 13.3782 20.524 11.9597C20.524 10.5411 19.3833 9.39111 17.976 9.39111C16.5688 9.39111 15.428 10.5411 15.428 11.9597C15.428 13.3782 16.5688 14.5282 17.976 14.5282Z" fill="#233163"/>
</svg>
