<svg width="34" height="38" viewBox="0 0 34 38" fill="none" xmlns="http://www.w3.org/2000/svg">
<path d="M33.8174 9.36407C33.8172 9.22332 33.7858 9.08437 33.7255 8.9572C33.667 8.83291 33.5804 8.72388 33.4726 8.63867C33.3648 8.55347 33.2387 8.4944 33.1043 8.4661L17.4691 0.883135C17.3434 0.822484 17.2057 0.790985 17.0661 0.790985C16.9265 0.790985 16.7887 0.822484 16.663 0.883135L0.874752 8.53938C0.723415 8.61246 0.594867 8.72542 0.50294 8.86611C0.411013 9.00679 0.359185 9.16988 0.353033 9.33782V28.5758C0.35241 28.7492 0.401131 28.9193 0.493509 29.0661C0.585887 29.2129 0.718112 29.3304 0.874752 29.4049L16.663 37.0611C16.6707 37.0611 16.6707 37.0611 16.6783 37.0688C16.7026 37.0757 16.7258 37.086 16.7473 37.0994C16.7549 37.0994 16.7626 37.107 16.7779 37.107L16.8468 37.13C16.8544 37.13 16.8621 37.1377 16.8698 37.1377C16.8774 37.1377 16.9233 37.1453 16.9463 37.153H16.9693C16.9999 37.153 17.0382 37.1606 17.0688 37.1606C17.1022 37.1619 17.1356 37.1593 17.1683 37.153H17.1913C17.2174 37.1516 17.2432 37.1464 17.2679 37.1377C17.2755 37.1377 17.2832 37.13 17.2908 37.13L17.3598 37.107C17.3674 37.107 17.3751 37.0994 17.3904 37.0994C17.4147 37.0924 17.4378 37.0821 17.4593 37.0688C17.4669 37.0688 17.4669 37.0688 17.4746 37.0611L33.3088 29.3863C33.4644 29.3104 33.5957 29.1926 33.6879 29.0461C33.7801 28.8996 33.8295 28.7303 33.8305 28.5572V9.38704C33.8174 9.37501 33.8174 9.37501 33.8174 9.36407ZM17.0623 2.73267L30.7549 9.37501L25.7127 11.8239L12.0201 5.18485L17.0623 2.73267ZM17.0623 16.0108L3.3696 9.37501L9.90913 6.20314L23.6018 12.8422L17.0623 16.0108ZM2.19491 10.8527L16.1413 17.6142V34.75L2.19491 27.9917V10.8527ZM17.9843 34.75V17.6153L24.5315 14.438V18.9224C24.5315 19.1666 24.6285 19.4008 24.8012 19.5736C24.9739 19.7463 25.2082 19.8433 25.4524 19.8433C25.6967 19.8433 25.9309 19.7463 26.1036 19.5736C26.2763 19.4008 26.3733 19.1666 26.3733 18.9224V13.5389L31.9766 10.822V27.9611L17.9843 34.75Z" fill="#233163"/>
</svg>
