<svg width="32" height="32" viewBox="0 0 32 32" fill="none" xmlns="http://www.w3.org/2000/svg">
<path d="M25.9991 25.7666L25.2839 9.57463C25.2713 8.37927 24.2922 7.40961 23.0906 7.40961H19.4552C19.1602 5.50179 17.4978 4 15.4975 4C13.4966 4 11.8337 5.50179 11.5387 7.40961H7.90829C6.70703 7.40961 5.72828 8.3793 5.71568 9.57467L5.0009 25.766C5.00031 25.7798 5 25.7937 5 25.8075C5 27.0164 5.98389 28 7.1933 28H23.8068C25.0161 28 26 27.0166 26 25.8077C26 25.794 25.9997 25.7803 25.9991 25.7666ZM15.4975 5.86742C16.4666 5.86742 17.2869 6.51928 17.5502 7.4096H13.4438C13.7072 6.51929 14.5279 5.86742 15.4975 5.86742ZM23.8068 26.1346H7.1933C7.01271 26.1346 6.87025 25.9983 6.86302 25.8228L7.57734 9.64092C7.57795 9.6272 7.57825 9.61109 7.57825 9.59734C7.57825 9.41793 7.7232 9.27504 7.90827 9.27504H11.4844V12.6874C11.4844 13.203 11.9004 13.6211 12.4147 13.6211C12.9291 13.6211 13.3451 13.203 13.3451 12.6874V9.27504H17.6304V12.6874C17.6304 13.203 18.0464 13.6211 18.5608 13.6211C19.0752 13.6211 19.4912 13.203 19.4912 12.6874V9.27504H23.0906C23.276 9.27504 23.4213 9.41771 23.4213 9.59711C23.4213 9.61088 23.4216 9.6257 23.4222 9.63948L24.137 25.8223C24.1297 25.9978 23.9873 26.1346 23.8068 26.1346Z" fill="#233163"/>
</svg>
