<svg width="60" height="60" viewBox="0 0 60 60" fill="none" xmlns="http://www.w3.org/2000/svg">
<circle cx="30" cy="30" r="29" fill="url(#paint0_linear_315_3871)" stroke="white" stroke-width="2"/>
<path d="M20.6665 39V44.0213L22.6865 42.8093L29.0358 39H35.3332C36.8038 39 37.9998 37.804 37.9998 36.3333V25.6667C37.9998 24.196 36.8038 23 35.3332 23H19.3332C17.8625 23 16.6665 24.196 16.6665 25.6667V36.3333C16.6665 37.804 17.8625 39 19.3332 39H20.6665ZM19.3332 25.6667H35.3332V36.3333H28.2972L23.3332 39.312V36.3333H19.3332V25.6667Z" fill="white"/>
<path d="M40.6667 17.667H24.6667C23.196 17.667 22 18.863 22 20.3337H38C39.4707 20.3337 40.6667 21.5297 40.6667 23.0003V33.667C42.1373 33.667 43.3333 32.471 43.3333 31.0003V20.3337C43.3333 18.863 42.1373 17.667 40.6667 17.667Z" fill="white"/>
<defs>
<linearGradient id="paint0_linear_315_3871" x1="2" y1="-4" x2="48" y2="58" gradientUnits="userSpaceOnUse">
<stop stop-color="#2E469D"/>
<stop offset="1" stop-color="#647EFF"/>
</linearGradient>
</defs>
</svg>
