<svg width="32" height="32" viewBox="0 0 32 32" fill="none" xmlns="http://www.w3.org/2000/svg">
<path d="M18.2006 22.5999V9.40025C18.2006 8.81679 17.9688 8.25723 17.5562 7.84466C17.1437 7.4321 16.5841 7.20032 16.0007 7.20032H7.20091C6.61745 7.20032 6.05789 7.4321 5.64532 7.84466C5.23275 8.25723 5.00098 8.81679 5.00098 9.40025V21.4999C5.00098 21.7916 5.11687 22.0714 5.32315 22.2777C5.52943 22.484 5.80921 22.5999 6.10094 22.5999H8.30088" stroke="#233163" stroke-width="2.19993" stroke-linecap="round" stroke-linejoin="round"/>
<path d="M19.3 22.5999H12.7002" stroke="#233163" stroke-width="2.19993" stroke-linecap="round" stroke-linejoin="round"/>
<path d="M23.7 22.5998H25.9C26.1917 22.5998 26.4715 22.4839 26.6778 22.2776C26.884 22.0713 26.9999 21.7915 26.9999 21.4998V17.4849C26.9995 17.2353 26.9142 16.9932 26.7579 16.7985L22.9301 12.0137C22.8272 11.8849 22.6967 11.7808 22.5482 11.7092C22.3996 11.6376 22.2369 11.6003 22.0721 11.6001H18.2002" stroke="#233163" stroke-width="2.19993" stroke-linecap="round" stroke-linejoin="round"/>
<path d="M21.4997 24.7998C22.7147 24.7998 23.6997 23.8148 23.6997 22.5998C23.6997 21.3848 22.7147 20.3999 21.4997 20.3999C20.2847 20.3999 19.2998 21.3848 19.2998 22.5998C19.2998 23.8148 20.2847 24.7998 21.4997 24.7998Z" stroke="#233163" stroke-width="2.19993" stroke-linecap="round" stroke-linejoin="round"/>
<path d="M10.5007 24.7998C11.7157 24.7998 12.7007 23.8148 12.7007 22.5998C12.7007 21.3848 11.7157 20.3999 10.5007 20.3999C9.28573 20.3999 8.30078 21.3848 8.30078 22.5998C8.30078 23.8148 9.28573 24.7998 10.5007 24.7998Z" stroke="#233163" stroke-width="2.19993" stroke-linecap="round" stroke-linejoin="round"/>
</svg>
