<svg width="32" height="32" viewBox="0 0 32 32" fill="none" xmlns="http://www.w3.org/2000/svg">
<path d="M15.5089 19.5612H10.2985C9.07013 19.5612 7.8921 20.0491 7.02352 20.9177C6.15495 21.7863 5.66699 22.9643 5.66699 24.1926V26.5084" stroke="#233163" stroke-width="2.5" stroke-linecap="round" stroke-linejoin="round"/>
<path d="M26.9466 21.4439C27.4078 20.9826 27.6669 20.357 27.6669 19.7047C27.6669 19.0524 27.4078 18.4269 26.9466 17.9656C26.4853 17.5044 25.8597 17.2452 25.2074 17.2452C24.5551 17.2452 23.9296 17.5044 23.4683 17.9656L18.8253 22.611C18.55 22.8861 18.3485 23.2262 18.2394 23.5998L17.2702 26.9229C17.2412 27.0225 17.2394 27.1282 17.2652 27.2287C17.2909 27.3292 17.3433 27.421 17.4166 27.4944C17.49 27.5678 17.5818 27.6201 17.6823 27.6458C17.7829 27.6716 17.8885 27.6698 17.9881 27.6408L21.3112 26.6716C21.6848 26.5626 22.0249 26.3611 22.3 26.0858L26.9466 21.4439Z" stroke="#233163" stroke-width="2.5" stroke-linecap="round" stroke-linejoin="round"/>
<path d="M13.7721 14.9297C16.33 14.9297 18.4036 12.8561 18.4036 10.2982C18.4036 7.74034 16.33 5.66675 13.7721 5.66675C11.2142 5.66675 9.14062 7.74034 9.14062 10.2982C9.14062 12.8561 11.2142 14.9297 13.7721 14.9297Z" stroke="#233163" stroke-width="2.5" stroke-linecap="round" stroke-linejoin="round"/>
</svg>
