<svg width="11" height="12" viewBox="0 0 11 12" fill="none" xmlns="http://www.w3.org/2000/svg">
<path d="M10.5994 1.00869C10.6903 1.09959 10.7551 1.20312 10.7938 1.3193C10.8325 1.43547 10.8519 1.56757 10.852 1.71559L10.843 7.15837C10.8403 7.27547 10.8188 7.39128 10.7783 7.5058C10.7379 7.62031 10.6701 7.72511 10.575 7.8202C10.4518 7.94347 10.314 8.02403 10.1616 8.06189C10.0127 8.10311 9.86459 8.10645 9.71734 8.0719C9.57361 8.03383 9.44788 7.96093 9.34015 7.8532C9.26609 7.77913 9.20443 7.6893 9.15517 7.58369C9.10591 7.47808 9.08107 7.35815 9.08066 7.22391L9.1414 2.46674L4.37918 2.52243C4.24141 2.52553 4.11972 2.50246 4.01412 2.4532C3.91203 2.40042 3.82395 2.337 3.74989 2.26293C3.64216 2.1552 3.56926 2.02947 3.53119 1.88575C3.49664 1.7385 3.49829 1.58871 3.53615 1.43639C3.57401 1.28407 3.65457 1.14627 3.77783 1.02301C3.87292 0.927918 3.97773 0.860149 4.09224 0.819701C4.21012 0.782619 4.32761 0.762759 4.44472 0.760119L9.88245 0.746006C10.0305 0.746113 10.1643 0.767195 10.2838 0.809253C10.4033 0.851312 10.5085 0.91779 10.5994 1.00869ZM0.403658 11.2045C0.31276 11.1136 0.248041 11.0066 0.209504 10.8835C0.167446 10.764 0.146364 10.6302 0.146257 10.4822L0.155088 5.04975C0.161249 4.92912 0.181109 4.81163 0.214669 4.69727C0.255117 4.58276 0.322887 4.47796 0.417977 4.38286C0.541242 4.2596 0.679036 4.17904 0.831359 4.14118C0.987204 4.0998 1.13699 4.09815 1.28072 4.13622C1.42444 4.17429 1.55017 4.24719 1.6579 4.35492C1.73197 4.42899 1.79363 4.51882 1.84289 4.62443C1.89567 4.72651 1.9205 4.84644 1.9174 4.98421L1.86699 9.74115L6.61888 9.68569C6.75312 9.6861 6.87305 9.71094 6.97866 9.7602C7.08426 9.80946 7.1741 9.87112 7.24817 9.94518C7.3559 10.0529 7.4288 10.1786 7.46687 10.3224C7.50494 10.4661 7.5016 10.6142 7.45686 10.7667C7.419 10.919 7.33844 11.0568 7.21517 11.1801C7.12008 11.2751 7.01528 11.3429 6.90077 11.3834C6.78977 11.4203 6.67396 11.4418 6.55334 11.448L1.11584 11.4518C0.967817 11.4517 0.835719 11.4323 0.719546 11.3936C0.599852 11.3584 0.494557 11.2954 0.403658 11.2045Z" fill="#00BA76"/>
</svg>
