<svg width="295" height="41" viewBox="0 0 295 41" fill="none" xmlns="http://www.w3.org/2000/svg">
<rect x="165.323" width="129.613" height="41" rx="7.93548" fill="#00BA76"/>
<path d="M13.9665 36.1635C11.3142 36.1635 9.09935 35.6838 7.32181 34.7245C5.57247 33.7652 4.26047 32.3262 3.38581 30.4076C2.51114 28.489 2.07381 26.1048 2.07381 23.2551V6.7916H8.93006V23.6783C8.93006 25.5123 9.35329 26.9372 10.1997 27.9529C11.0462 28.9686 12.3018 29.4765 13.9665 29.4765C15.6594 29.4765 16.9149 28.9686 17.7332 27.9529C18.5796 26.9372 19.0028 25.5123 19.0028 23.6783V6.7916H25.9014V23.2551C25.9014 26.1048 25.45 28.489 24.5471 30.4076C23.6724 32.3262 22.3604 33.7652 20.6111 34.7245C18.8618 35.6838 16.6469 36.1635 13.9665 36.1635ZM30.098 35.6133V6.7916H40.7633C42.8512 6.7916 44.7275 7.20072 46.3922 8.01896C48.0568 8.80898 49.383 9.97991 50.3705 11.5317C51.358 13.0553 51.8518 14.9034 51.8518 17.076C51.8518 19.2768 51.358 21.139 50.3705 22.6626C49.383 24.1862 48.0568 25.343 46.3922 26.133C44.7275 26.923 42.8512 27.3181 40.7633 27.3181H35.3883V20.7157H40.3824C41.8213 20.7157 42.9217 20.4054 43.6835 19.7846C44.4735 19.1639 44.8685 18.261 44.8685 17.076C44.8685 15.891 44.4735 14.9881 43.6835 14.3673C42.9217 13.7466 41.8213 13.4362 40.3824 13.4362H35.346L36.9542 11.955V35.6133H30.098ZM44.6569 35.6133L38.7318 23.9746H46.2229L52.148 35.6133H44.6569ZM68.5576 36.1635C65.6233 36.1635 63.0557 35.5427 60.8549 34.3013C58.6541 33.0316 56.933 31.2964 55.6916 29.0956C54.4783 26.8666 53.8717 24.3414 53.8717 21.5199C53.8717 19.2344 54.2244 17.1606 54.9297 15.2984C55.6351 13.4362 56.6368 11.8421 57.9347 10.516C59.2325 9.16167 60.7844 8.11771 62.5901 7.38412C64.3959 6.65053 66.3851 6.28373 68.5576 6.28373C71.8588 6.28373 74.5956 7.00322 76.7682 8.44219C78.969 9.85294 80.6337 11.8985 81.7623 14.579L75.5832 17.203C74.7931 15.764 73.8197 14.6918 72.6629 13.9864C71.5061 13.2811 70.1377 12.9284 68.5576 12.9284C67.0622 12.9284 65.7361 13.2811 64.5793 13.9864C63.4225 14.6636 62.5055 15.637 61.8283 16.9067C61.1794 18.1764 60.8549 19.7141 60.8549 21.5199C60.8549 23.1563 61.1794 24.6094 61.8283 25.8791C62.5055 27.1206 63.4084 28.0799 64.537 28.757C65.6938 29.4342 67.0199 29.7728 68.5153 29.7728C69.8978 29.7728 71.097 29.5329 72.1127 29.0533C73.1567 28.5454 73.989 27.84 74.6097 26.9372C75.2305 26.0343 75.6114 24.9339 75.7525 23.636L77.9532 25.7098H67.9651V19.6577H82.0162C82.1291 20.1373 82.2137 20.6593 82.2701 21.2236C82.3266 21.7879 82.3548 22.3522 82.3548 22.9165C82.3548 24.948 81.9739 26.782 81.2121 28.4184C80.4785 30.0549 79.4627 31.4516 78.1648 32.6084C76.867 33.7652 75.3857 34.654 73.721 35.2747C72.0845 35.8672 70.3634 36.1635 68.5576 36.1635ZM126.179 35.6133L111.409 15.2561L114.16 14.4943V35.6133H107.304V6.7916H113.652L128.211 26.9795L125.629 27.572V6.7916H132.486V35.6133H126.179ZM143.457 35.6133V9.62722H150.356V35.6133H143.457ZM135.077 13.4362V6.7916H158.82V13.4362H135.077Z" fill="white"/>
<rect x="18.5161" y="6.61328" width="7.93548" height="13.2258" fill="#2E469D"/>
<rect x="85.1743" y="7.27344" width="18.7806" height="6.34839" fill="white"/>
<rect x="85.1743" y="18.3828" width="18.7806" height="6.34839" fill="white"/>
<rect x="85.1743" y="29.4922" width="18.7806" height="6.34839" fill="white"/>
<path d="M176.073 32.9355V7.71658H184.701C186.528 7.71658 188.034 7.96346 189.219 8.45722C190.429 8.95099 191.33 9.70398 191.922 10.7162C192.54 11.7284 192.848 12.9998 192.848 14.5305C192.848 15.7896 192.54 16.9006 191.922 17.8634C191.33 18.8263 190.527 19.5792 189.515 20.1224C188.528 20.6408 187.441 20.9001 186.256 20.9001L186.442 19.2336C187.948 19.2336 189.231 19.5052 190.293 20.0483C191.354 20.5915 192.182 21.3568 192.774 22.3443C193.367 23.3318 193.663 24.5045 193.663 25.8624C193.663 28.1831 192.947 29.9483 191.515 31.158C190.083 32.343 188.022 32.9355 185.331 32.9355H176.073ZM180.368 10.1977V30.1952L178.739 28.825H185.368C186.602 28.825 187.565 28.504 188.256 27.8621C188.947 27.2202 189.293 26.3808 189.293 25.3439C189.293 24.2083 188.96 23.3442 188.293 22.7517C187.627 22.1592 186.676 21.8629 185.442 21.8629H178.739V18.0486H184.775C185.985 18.0486 186.898 17.7894 187.515 17.2709C188.157 16.7524 188.478 15.9871 188.478 14.9749C188.478 14.0368 188.157 13.2838 187.515 12.7159C186.874 12.1234 185.96 11.8272 184.775 11.8272H178.887L180.368 10.1977ZM196.318 20.3446C196.318 18.4683 196.639 16.7401 197.281 15.1601C197.923 13.5553 198.824 12.1728 199.984 11.0125C201.169 9.85211 202.552 8.95099 204.132 8.3091C205.737 7.6672 207.49 7.34626 209.391 7.34626C211.242 7.34626 212.958 7.6672 214.538 8.3091C216.118 8.95099 217.488 9.85211 218.649 11.0125C219.834 12.1728 220.747 13.5553 221.389 15.1601C222.031 16.7401 222.352 18.4683 222.352 20.3446C222.352 22.2209 222.031 23.9491 221.389 25.5291C220.747 27.1091 219.834 28.4917 218.649 29.6767C217.488 30.8371 216.118 31.7382 214.538 32.3801C212.958 33.022 211.242 33.3429 209.391 33.3429C207.49 33.3429 205.737 33.022 204.132 32.3801C202.552 31.7382 201.169 30.8371 199.984 29.6767C198.824 28.4917 197.923 27.1091 197.281 25.5291C196.639 23.9491 196.318 22.2209 196.318 20.3446ZM200.688 20.3446C200.688 22.0728 201.058 23.6034 201.799 24.9366C202.564 26.2451 203.601 27.282 204.91 28.0473C206.218 28.7879 207.712 29.1583 209.391 29.1583C211.045 29.1583 212.514 28.7879 213.797 28.0473C215.106 27.282 216.13 26.2327 216.871 24.8995C217.612 23.5664 217.982 22.0481 217.982 20.3446C217.982 18.5917 217.612 17.0611 216.871 15.7526C216.13 14.4194 215.106 13.3825 213.797 12.6419C212.514 11.9012 211.045 11.5309 209.391 11.5309C207.712 11.5309 206.218 11.9136 204.91 12.6789C203.601 13.4195 202.564 14.4564 201.799 15.7896C201.058 17.0981 200.688 18.6164 200.688 20.3446ZM227.821 7.71658L234.746 17.8634H233.746L240.671 7.71658H245.818L236.486 20.9371L235.968 19.1595L245.818 32.9355H240.634L233.153 22.2332H234.894L227.562 32.9355H222.377L232.116 19.1595L232.005 20.9371L222.71 7.71658H227.821ZM252.092 22.3073V18.2337H262.35V22.3073H252.092ZM251.981 11.7901L253.203 10.2348V30.01L251.796 28.862H264.498V32.9355H248.907V7.71658H264.498V11.7901H251.981ZM276.98 33.5281C275.622 33.5281 274.326 33.3306 273.092 32.9355C271.857 32.5158 270.734 31.8616 269.722 30.9728C268.71 30.0594 267.858 28.862 267.167 27.3807L270.648 25.3069C271.462 26.7388 272.388 27.7881 273.425 28.4546C274.462 29.1212 275.709 29.4545 277.165 29.4545C278.523 29.4545 279.548 29.1583 280.239 28.5657C280.955 27.9732 281.313 27.1585 281.313 26.1216C281.313 25.5044 281.153 24.9736 280.832 24.5292C280.535 24.0601 279.992 23.6281 279.202 23.2331C278.437 22.8134 277.338 22.4307 275.906 22.0851C273.931 21.5913 272.388 20.9865 271.277 20.2705C270.166 19.5299 269.389 18.6781 268.944 17.7153C268.5 16.7278 268.278 15.6538 268.278 14.4935C268.278 13.0616 268.611 11.8148 269.277 10.7532C269.944 9.69163 270.907 8.85223 272.166 8.23503C273.425 7.61783 274.919 7.30922 276.647 7.30922C278.696 7.30922 280.387 7.70423 281.72 8.49426C283.078 9.28428 284.201 10.3335 285.09 11.642L281.572 13.975C280.856 13.0616 280.066 12.4197 279.202 12.0494C278.363 11.6543 277.486 11.4568 276.573 11.4568C275.264 11.4568 274.265 11.7161 273.573 12.2345C272.882 12.7283 272.536 13.4566 272.536 14.4194C272.536 15.2341 272.87 15.9377 273.536 16.5303C274.203 17.1228 275.499 17.6536 277.425 18.1226C279.498 18.6411 281.14 19.2583 282.35 19.9743C283.56 20.6655 284.411 21.5173 284.905 22.5295C285.424 23.517 285.683 24.702 285.683 26.0846C285.683 27.4918 285.325 28.7509 284.609 29.8619C283.893 30.9728 282.881 31.8616 281.572 32.5282C280.288 33.1948 278.758 33.5281 276.98 33.5281Z" fill="white"/>
</svg>
