<svg width="64" height="64" viewBox="0 0 64 64" fill="none" xmlns="http://www.w3.org/2000/svg">
<path d="M32.1243 34.6807L34.9273 31.8779L25.0868 22.0384L22.2837 24.8412L32.1243 34.6807ZM46.1794 17.8243C44.3384 15.9721 42.1482 14.5036 39.7355 13.5039C37.3229 12.5041 34.7359 11.993 32.1243 12.0001H30.1363V21.9512H34.1123V16.0949C37.6776 16.5455 40.9852 18.1902 43.4961 20.7609C46.007 23.3317 47.5731 26.6769 47.9392 30.2515C48.3054 33.8262 47.4499 37.4194 45.5123 40.4457C43.5747 43.472 40.6691 45.7529 37.2691 46.9167C33.8691 48.0805 30.1752 48.0587 26.7892 46.8547C23.4032 45.6507 20.5249 43.3356 18.6232 40.2866C16.7215 37.2376 15.9087 33.6345 16.3171 30.0644C16.7255 26.4944 18.3311 23.1679 20.8722 20.6271L22.2837 19.2356L19.4806 16.413L18.0691 17.8243C16.1704 19.6579 14.6559 21.8514 13.614 24.2765C12.5721 26.7017 12.0237 29.3101 12.0008 31.9494C11.9778 34.5888 12.4808 37.2063 13.4804 39.6492C14.48 42.0921 15.9561 44.3115 17.8227 46.1779C19.6893 48.0443 21.9089 49.5203 24.3521 50.5198C26.7953 51.5192 29.4131 52.0222 32.0527 51.9992C34.6924 51.9763 37.301 51.428 39.7265 50.3862C42.1519 49.3444 44.3455 47.8301 46.1794 45.9315C49.9063 42.2039 52 37.1488 52 31.8779C52 26.607 49.9063 21.5519 46.1794 17.8243Z" fill="#00BA76" stroke="white" stroke-width="1.48627"/>
</svg>
