<svg width="64" height="64" viewBox="0 0 64 64" fill="none" xmlns="http://www.w3.org/2000/svg">
<path d="M30.8862 27.7168L27.8759 32.0475C27.475 32.6213 27.2943 33.3208 27.3571 34.0125L29.0784 52.9782C29.1099 53.2769 29.2514 53.552 29.4793 53.7406C29.6836 53.9135 29.9352 54 30.2024 54C30.2338 54 30.2731 54 30.3046 54C30.5875 53.9764 30.8548 53.8428 31.0434 53.6306L39.3355 44.3246C39.8857 43.7036 39.9486 42.7919 39.4927 42.1081L36.5689 37.738L48.5236 25.0208C49.0581 24.4471 49.2389 23.6375 48.9874 22.8908L47.7927 19.3303L51.0466 18.3478C51.3375 18.2614 51.5733 18.0649 51.7147 17.8055C51.8562 17.5383 51.8876 17.2317 51.8012 16.9488C51.7147 16.6658 51.5261 16.4379 51.2746 16.2964L46.1657 13.4433C45.5133 13.0818 44.7195 13.0425 44.0357 13.349L37.2998 16.3986L27.0899 10.3937C26.7834 10.2129 26.4533 10.095 26.1074 10.04C25.7616 9.98499 25.4079 9.99285 25.0621 10.0636L13.0758 12.5866C12.4628 12.7124 12.0698 13.3176 12.1955 13.9306C12.2506 14.2136 12.4156 14.4572 12.6436 14.6223L30.8862 27.7168ZM31.7429 29.2337L34.093 35.8438L29.1885 32.9042L31.7429 29.2258V29.2337ZM38.1801 42.9727C38.243 43.067 38.2351 43.1849 38.1565 43.2713L30.5404 51.8228L28.9841 34.6177L35.0047 38.2253L38.1801 42.9727ZM47.2818 17.837L46.4644 15.4083L49.569 17.1453L47.2818 17.837ZM44.6016 14.8031L46.0321 19.0552L47.0696 22.1441L38.9425 17.3575L44.6016 14.7952V14.8031ZM47.2425 24.0698L35.8772 36.1661L27.4515 12.4294L47.2425 24.0698ZM25.4865 11.5884L30.3989 25.4295L14.357 13.9228C24.4804 11.7849 25.125 11.6356 25.4786 11.5884H25.4865Z" fill="#00BA76" stroke="#00BA76" stroke-width="0.4"/>
</svg>
