<svg width="223" height="31" viewBox="0 0 223 31" fill="none" xmlns="http://www.w3.org/2000/svg">
<rect x="125" width="98" height="31" rx="6" fill="#00BA76"/>
<path d="M10.56 27.416C8.55467 27.416 6.88 27.0533 5.536 26.328C4.21333 25.6027 3.22133 24.5147 2.56 23.064C1.89867 21.6133 1.568 19.8107 1.568 17.656V5.208H6.752V17.976C6.752 19.3627 7.072 20.44 7.712 21.208C8.352 21.976 9.30133 22.36 10.56 22.36C11.84 22.36 12.7893 21.976 13.408 21.208C14.048 20.44 14.368 19.3627 14.368 17.976V5.208H19.584V17.656C19.584 19.8107 19.2427 21.6133 18.56 23.064C17.8987 24.5147 16.9067 25.6027 15.584 26.328C14.2613 27.0533 12.5867 27.416 10.56 27.416ZM22.757 27V5.208H30.821C32.3997 5.208 33.8183 5.51733 35.077 6.136C36.3357 6.73333 37.3383 7.61867 38.085 8.792C38.8317 9.944 39.205 11.3413 39.205 12.984C39.205 14.648 38.8317 16.056 38.085 17.208C37.3383 18.36 36.3357 19.2347 35.077 19.832C33.8183 20.4293 32.3997 20.728 30.821 20.728H26.757V15.736H30.533C31.621 15.736 32.453 15.5013 33.029 15.032C33.6263 14.5627 33.925 13.88 33.925 12.984C33.925 12.088 33.6263 11.4053 33.029 10.936C32.453 10.4667 31.621 10.232 30.533 10.232H26.725L27.941 9.112V27H22.757ZM33.765 27L29.285 18.2H34.949L39.429 27H33.765ZM51.8363 27.416C49.6176 27.416 47.6763 26.9467 46.0123 26.008C44.3483 25.048 43.0469 23.736 42.1083 22.072C41.1909 20.3867 40.7323 18.4773 40.7323 16.344C40.7323 14.616 40.9989 13.048 41.5323 11.64C42.0656 10.232 42.8229 9.02667 43.8043 8.024C44.7856 7 45.9589 6.21067 47.3243 5.656C48.6896 5.10133 50.1936 4.824 51.8363 4.824C54.3323 4.824 56.4016 5.368 58.0443 6.456C59.7083 7.52267 60.9669 9.06933 61.8203 11.096L57.1483 13.08C56.5509 11.992 55.8149 11.1813 54.9403 10.648C54.0656 10.1147 53.0309 9.848 51.8363 9.848C50.7056 9.848 49.7029 10.1147 48.8283 10.648C47.9536 11.16 47.2603 11.896 46.7483 12.856C46.2576 13.816 46.0123 14.9787 46.0123 16.344C46.0123 17.5813 46.2576 18.68 46.7483 19.64C47.2603 20.5787 47.9429 21.304 48.7963 21.816C49.6709 22.328 50.6736 22.584 51.8043 22.584C52.8496 22.584 53.7563 22.4027 54.5243 22.04C55.3136 21.656 55.9429 21.1227 56.4123 20.44C56.8816 19.7573 57.1696 18.9253 57.2763 17.944L58.9403 19.512H51.3883V14.936H62.0123C62.0976 15.2987 62.1616 15.6933 62.2043 16.12C62.2469 16.5467 62.2683 16.9733 62.2683 17.4C62.2683 18.936 61.9803 20.3227 61.4043 21.56C60.8496 22.7973 60.0816 23.8533 59.1003 24.728C58.1189 25.6027 56.9989 26.2747 55.7403 26.744C54.5029 27.192 53.2016 27.416 51.8363 27.416ZM95.404 27L84.236 11.608L86.316 11.032V27H81.132V5.208H85.932L96.94 20.472L94.988 20.92V5.208H100.172V27H95.404ZM108.468 27V7.352H113.684V27H108.468ZM102.132 10.232V5.208H120.084V10.232H102.132Z" fill="#2E469D"/>
<rect x="14" y="5" width="6" height="10" fill="white"/>
<rect x="64.4" y="5.5" width="14.2" height="4.8" fill="#2E469D"/>
<rect x="64.4" y="13.9" width="14.2" height="4.8" fill="#2E469D"/>
<rect x="64.4" y="22.3" width="14.2" height="4.8" fill="#2E469D"/>
<path d="M133.128 25V5.932H139.652C141.033 5.932 142.172 6.11867 143.068 6.492C143.983 6.86533 144.664 7.43467 145.112 8.2C145.579 8.96533 145.812 9.92667 145.812 11.084C145.812 12.036 145.579 12.876 145.112 13.604C144.664 14.332 144.057 14.9013 143.292 15.312C142.545 15.704 141.724 15.9 140.828 15.9L140.968 14.64C142.107 14.64 143.077 14.8453 143.88 15.256C144.683 15.6667 145.308 16.2453 145.756 16.992C146.204 17.7387 146.428 18.6253 146.428 19.652C146.428 21.4067 145.887 22.7413 144.804 23.656C143.721 24.552 142.163 25 140.128 25H133.128ZM136.376 7.808V22.928L135.144 21.892H140.156C141.089 21.892 141.817 21.6493 142.34 21.164C142.863 20.6787 143.124 20.044 143.124 19.26C143.124 18.4013 142.872 17.748 142.368 17.3C141.864 16.852 141.145 16.628 140.212 16.628H135.144V13.744H139.708C140.623 13.744 141.313 13.548 141.78 13.156C142.265 12.764 142.508 12.1853 142.508 11.42C142.508 10.7107 142.265 10.1413 141.78 9.712C141.295 9.264 140.604 9.04 139.708 9.04H135.256L136.376 7.808ZM148.436 15.48C148.436 14.0613 148.678 12.7547 149.164 11.56C149.649 10.3467 150.33 9.30133 151.208 8.424C152.104 7.54667 153.149 6.86533 154.344 6.38C155.557 5.89467 156.882 5.652 158.32 5.652C159.72 5.652 161.017 5.89467 162.212 6.38C163.406 6.86533 164.442 7.54667 165.32 8.424C166.216 9.30133 166.906 10.3467 167.392 11.56C167.877 12.7547 168.12 14.0613 168.12 15.48C168.12 16.8987 167.877 18.2053 167.392 19.4C166.906 20.5947 166.216 21.64 165.32 22.536C164.442 23.4133 163.406 24.0947 162.212 24.58C161.017 25.0653 159.72 25.308 158.32 25.308C156.882 25.308 155.557 25.0653 154.344 24.58C153.149 24.0947 152.104 23.4133 151.208 22.536C150.33 21.64 149.649 20.5947 149.164 19.4C148.678 18.2053 148.436 16.8987 148.436 15.48ZM151.74 15.48C151.74 16.7867 152.02 17.944 152.58 18.952C153.158 19.9413 153.942 20.7253 154.932 21.304C155.921 21.864 157.05 22.144 158.32 22.144C159.57 22.144 160.681 21.864 161.652 21.304C162.641 20.7253 163.416 19.932 163.976 18.924C164.536 17.916 164.816 16.768 164.816 15.48C164.816 14.1547 164.536 12.9973 163.976 12.008C163.416 11 162.641 10.216 161.652 9.656C160.681 9.096 159.57 8.816 158.32 8.816C157.05 8.816 155.921 9.10533 154.932 9.684C153.942 10.244 153.158 11.028 152.58 12.036C152.02 13.0253 151.74 14.1733 151.74 15.48ZM172.255 5.932L177.491 13.604H176.735L181.971 5.932H185.863L178.807 15.928L178.415 14.584L185.863 25H181.943L176.287 16.908H177.603L172.059 25H168.139L175.503 14.584L175.419 15.928L168.391 5.932H172.255ZM190.606 16.964V13.884H198.362V16.964H190.606ZM190.522 9.012L191.446 7.836V22.788L190.382 21.92H199.986V25H188.198V5.932H199.986V9.012H190.522ZM209.424 25.448C208.397 25.448 207.417 25.2987 206.484 25C205.551 24.6827 204.701 24.188 203.936 23.516C203.171 22.8253 202.527 21.92 202.004 20.8L204.636 19.232C205.252 20.3147 205.952 21.108 206.736 21.612C207.52 22.116 208.463 22.368 209.564 22.368C210.591 22.368 211.365 22.144 211.888 21.696C212.429 21.248 212.7 20.632 212.7 19.848C212.7 19.3813 212.579 18.98 212.336 18.644C212.112 18.2893 211.701 17.9627 211.104 17.664C210.525 17.3467 209.695 17.0573 208.612 16.796C207.119 16.4227 205.952 15.9653 205.112 15.424C204.272 14.864 203.684 14.22 203.348 13.492C203.012 12.7453 202.844 11.9333 202.844 11.056C202.844 9.97333 203.096 9.03067 203.6 8.228C204.104 7.42533 204.832 6.79067 205.784 6.324C206.736 5.85733 207.865 5.624 209.172 5.624C210.721 5.624 212 5.92267 213.008 6.52C214.035 7.11733 214.884 7.91067 215.556 8.9L212.896 10.664C212.355 9.97333 211.757 9.488 211.104 9.208C210.469 8.90933 209.807 8.76 209.116 8.76C208.127 8.76 207.371 8.956 206.848 9.348C206.325 9.72133 206.064 10.272 206.064 11C206.064 11.616 206.316 12.148 206.82 12.596C207.324 13.044 208.304 13.4453 209.76 13.8C211.328 14.192 212.569 14.6587 213.484 15.2C214.399 15.7227 215.043 16.3667 215.416 17.132C215.808 17.8787 216.004 18.7747 216.004 19.82C216.004 20.884 215.733 21.836 215.192 22.676C214.651 23.516 213.885 24.188 212.896 24.692C211.925 25.196 210.768 25.448 209.424 25.448Z" fill="white"/>
</svg>
