<svg width="32" height="32" viewBox="0 0 32 32" fill="none" xmlns="http://www.w3.org/2000/svg">
<path d="M19 26C18.7348 26 18.4804 25.8946 18.2929 25.7071C18.1054 25.5196 18 25.2652 18 25V21C18 20.8354 18.0406 20.6734 18.1182 20.5282C18.1958 20.3831 18.3081 20.2594 18.445 20.168L21.445 18.168C21.6093 18.0584 21.8024 17.9999 22 17.9999C22.1975 17.9999 22.3907 18.0584 22.555 18.168L25.555 20.168C25.6919 20.2594 25.8041 20.3831 25.8818 20.5282C25.9594 20.6734 26 20.8354 26 21V25C26 25.2652 25.8946 25.5196 25.7071 25.7071C25.5195 25.8946 25.2652 26 25 26H19Z" stroke="#233163" stroke-width="1.99999" stroke-linecap="round" stroke-linejoin="round"/>
<path d="M21.9999 14C21.9999 11.8783 21.1571 9.84348 19.6568 8.3432C18.1565 6.84291 16.1217 6.00006 14 6.00006C11.8782 6.00006 9.84342 6.84291 8.34314 8.3432C6.84285 9.84348 6 11.8783 6 14C6 18.993 11.539 24.193 13.399 25.799C13.5723 25.929 13.7833 25.9992 14 25.999" stroke="#233163" stroke-width="1.99999" stroke-linecap="round" stroke-linejoin="round"/>
<path d="M22 25.9999V22.9999" stroke="#233163" stroke-width="1.99999" stroke-linecap="round" stroke-linejoin="round"/>
<path d="M14 17C15.6568 17 17 15.6568 17 14C17 12.3431 15.6568 11 14 11C12.3431 11 11 12.3431 11 14C11 15.6568 12.3431 17 14 17Z" stroke="#233163" stroke-width="1.99999" stroke-linecap="round" stroke-linejoin="round"/>
</svg>
