<svg width="101" height="73" viewBox="0 0 101 73" fill="none" xmlns="http://www.w3.org/2000/svg">
<path d="M76.9978 61.5556L75.295 23.0997C75.2649 20.2607 72.9338 17.9578 70.0729 17.9578H61.4173C60.7148 13.4267 56.7568 9.85999 51.994 9.85999C47.23 9.85999 43.2708 13.4267 42.5682 17.9578H33.9245C31.0644 17.9578 28.734 20.2608 28.704 23.0998L27.0021 61.5543C27.0007 61.5869 27 61.62 27 61.6527C27 64.5239 29.3426 66.86 32.2221 66.86H71.7781C74.6574 66.86 77 64.5245 77 61.6534C77 61.6207 76.9993 61.5882 76.9978 61.5556ZM51.994 14.2951C54.3014 14.2951 56.2546 15.8433 56.8814 17.9578H47.1042C47.7314 15.8433 49.6855 14.2951 51.994 14.2951ZM71.778 62.4296H32.2221C31.7922 62.4296 31.453 62.1059 31.4358 61.6891L33.1365 23.2572C33.138 23.2246 33.1387 23.1863 33.1387 23.1537C33.1387 22.7276 33.4838 22.3882 33.9245 22.3882H42.439V30.4925C42.439 31.7172 43.4294 32.71 44.6542 32.71C45.8789 32.71 46.8693 31.7172 46.8693 30.4925V22.3882H57.0725V30.4925C57.0725 31.7172 58.0629 32.71 59.2876 32.71C60.5124 32.71 61.5028 31.7172 61.5028 30.4925V22.3882H70.0729C70.5143 22.3882 70.8602 22.727 70.8602 23.1531C70.8602 23.1858 70.8609 23.221 70.8623 23.2538L72.5642 61.688C72.547 62.1047 72.2078 62.4296 71.778 62.4296Z" fill="#2E469D"/>
<path d="M87.0127 2L87.0127 15.72" stroke="#00BA76" stroke-width="2.8" stroke-linecap="round"/>
<path d="M93.8721 8.85999L80.1521 8.85998" stroke="#00BA76" stroke-width="2.8" stroke-linecap="round"/>
<path d="M7.88086 57.86L7.88086 69.62" stroke="#00BA76" stroke-width="2.4" stroke-linecap="round"/>
<path d="M13.7598 63.74L1.99977 63.74" stroke="#00BA76" stroke-width="2.4" stroke-linecap="round"/>
<path d="M16 11.1559L16 20.5639" stroke="#00BA76" stroke-width="1.92" stroke-linecap="round"/>
<path d="M20.7041 15.86L11.2961 15.86" stroke="#00BA76" stroke-width="1.92" stroke-linecap="round"/>
<path d="M95 62.1559L95 71.5639" stroke="#00BA76" stroke-width="1.92" stroke-linecap="round"/>
<path d="M99.7041 66.86L90.2961 66.86" stroke="#00BA76" stroke-width="1.92" stroke-linecap="round"/>
</svg>
