<svg width="24" height="24" viewBox="0 0 24 24" fill="none" xmlns="http://www.w3.org/2000/svg">
<path d="M21.1737 6.81184C21.7024 6.28327 21.9995 5.56632 21.9996 4.81871C21.9997 4.07111 21.7028 3.35409 21.1742 2.82538C20.6457 2.29668 19.9287 1.99961 19.1811 1.99951C18.4335 1.99942 17.7165 2.29631 17.1878 2.82488L3.84191 16.1737C3.60974 16.4052 3.43803 16.6903 3.34192 17.0037L2.02093 21.3557C1.99509 21.4422 1.99314 21.534 2.01529 21.6215C2.03743 21.709 2.08285 21.7889 2.14673 21.8527C2.2106 21.9164 2.29055 21.9617 2.37809 21.9837C2.46563 22.0058 2.55749 22.0037 2.64393 21.9777L6.99688 20.6577C7.31004 20.5624 7.59505 20.3918 7.82687 20.1607L21.1737 6.81184Z" stroke="#00BA76" stroke-width="2.5" stroke-linecap="round" stroke-linejoin="round"/>
</svg>
