<svg width="32" height="32" viewBox="0 0 32 32" fill="none" xmlns="http://www.w3.org/2000/svg">
<path fill-rule="evenodd" clip-rule="evenodd" d="M14.9793 10.2549C15.5653 10.9043 15.3795 11.6401 14.8614 12.3382C14.7386 12.5038 14.597 12.6668 14.426 12.8466C14.3439 12.9328 14.2799 12.9977 14.146 13.1317C13.842 13.436 13.5864 13.6917 13.3792 13.8988C13.2788 13.9992 13.9646 15.3696 15.2956 16.7017C16.6259 18.0332 17.9963 18.7194 18.0972 18.6184L18.8634 17.8518C19.2854 17.4295 19.5089 17.2257 19.8159 17.0243C20.4543 16.6055 21.1506 16.4917 21.7378 17.0168C23.6552 18.3882 24.7402 19.2297 25.2718 19.782C26.3086 20.8592 26.1727 22.5173 25.2777 23.4632C24.9673 23.7912 24.5738 24.1849 24.109 24.6329C21.2975 27.4457 15.3638 25.734 10.8163 21.1825C6.26773 16.6299 4.5567 10.6963 7.36235 7.88939C7.86604 7.37784 8.03212 7.21186 8.52267 6.72855C9.436 5.82871 11.1708 5.68781 12.2253 6.72944C12.78 7.27734 13.6644 8.41506 14.9793 10.2549ZM20.277 19.2658L19.5106 20.0325C18.2079 21.3358 15.9894 20.2249 13.8819 18.1155C11.7729 16.0047 10.6631 13.7872 11.9662 12.4843C12.1731 12.2774 12.4285 12.022 12.7323 11.7179C12.8548 11.5952 12.9109 11.5384 12.9782 11.4677C13.0699 11.3713 13.1453 11.2867 13.2056 11.2118C12.0402 9.5886 11.248 8.57435 10.821 8.15252C10.6004 7.93467 10.1065 7.97478 9.92524 8.15341C9.44168 8.62983 9.28274 8.78867 8.78108 9.29813C6.97677 11.1033 8.35803 15.8933 12.23 19.7687C16.1008 23.6429 20.8906 25.0246 22.7086 23.206C23.1662 22.7647 23.5391 22.3917 23.8261 22.0884C24.0334 21.8692 24.0705 21.417 23.8319 21.1691C23.4346 20.7563 22.4618 19.9979 20.7822 18.7919C20.6597 18.8904 20.5092 19.0333 20.277 19.2658Z" fill="#233163"/>
</svg>
