<svg width="64" height="64" viewBox="0 0 64 64" fill="none" xmlns="http://www.w3.org/2000/svg">
<path fill-rule="evenodd" clip-rule="evenodd" d="M32 56.0001C45.2549 56.0001 56 45.255 56 32.0001C56 18.7453 45.2549 8.00008 32 8.00008C18.7451 8.00008 7.99996 18.7453 7.99996 32.0001C7.99996 45.255 18.7451 56.0001 32 56.0001ZM32 61.3334C48.2002 61.3334 61.3333 48.2003 61.3333 32.0001C61.3333 15.7997 48.2002 2.66675 32 2.66675C15.7996 2.66675 2.66663 15.7997 2.66663 32.0001C2.66663 48.2003 15.7996 61.3334 32 61.3334Z" fill="white"/>
<path d="M42.6666 32.0001L26.6666 43.5471V20.4531L42.6666 32.0001Z" fill="white"/>
</svg>
