<svg width="15" height="12" viewBox="0 0 15 12" fill="none" xmlns="http://www.w3.org/2000/svg">
<path d="M8.77637 0.226502C9.09175 -0.0675522 9.57477 -0.0699114 9.89258 0.207947L9.9541 0.267517L14.7734 5.4306C15.0723 5.75074 15.0722 6.24812 14.7734 6.5683L9.9541 11.7314C9.64017 12.0677 9.11283 12.0861 8.77637 11.7724C8.44015 11.4585 8.42168 10.9311 8.73535 10.5947L12.2461 6.83197H0.830078C0.369953 6.83184 -0.00292969 6.45912 -0.00292969 5.99896C-0.00274727 5.53896 0.370066 5.16609 0.830078 5.16596H12.2461L8.73535 1.40424L8.68066 1.33881C8.42545 1.00252 8.46107 0.520803 8.77637 0.226502Z" fill="#00BA76"/>
</svg>
