<svg width="80" height="80" viewBox="0 0 80 80" fill="none" xmlns="http://www.w3.org/2000/svg">
<path d="M65.2906 26.9999L41.2319 13.6666C40.8366 13.4488 40.3926 13.3346 39.9412 13.3346C39.4899 13.3346 39.0459 13.4488 38.6506 13.6666L14.7092 26.8933C14.2933 27.1236 13.9465 27.4609 13.7048 27.8703C13.4631 28.2796 13.3352 28.7462 13.3344 29.2216C13.3335 29.697 13.4598 30.164 13.7002 30.5742C13.9405 30.9844 14.2861 31.3229 14.7012 31.5546L38.7599 44.9946C39.156 45.2172 39.6026 45.3343 40.0569 45.3347C40.5112 45.3352 40.958 45.219 41.3546 44.9973L65.2959 31.6639C65.7118 31.4327 66.0582 31.0943 66.2992 30.6839C66.5402 30.2736 66.667 29.8063 66.6665 29.3304C66.6659 28.8545 66.5381 28.3874 66.2961 27.9776C66.0542 27.5679 65.707 27.2303 65.2906 26.9999Z" fill="#00BFF3"/>
<path d="M40.0001 50.2826L17.2934 37.6693L14.7041 42.3306L38.7041 55.664C39.1002 55.8839 39.5457 55.9993 39.9988 55.9993C40.4518 55.9993 40.8974 55.8839 41.2934 55.664L65.2934 42.3306L62.7041 37.6693L40.0001 50.2826Z" fill="#2E469D"/>
<path d="M40.0001 60.9493L17.2934 48.3359L14.7041 52.9973L38.7041 66.3306C39.1002 66.5506 39.5457 66.666 39.9988 66.666C40.4518 66.666 40.8974 66.5506 41.2934 66.3306L65.2934 52.9973L62.7041 48.3359L40.0001 60.9493Z" fill="#2E469D"/>
</svg>
