<svg width="64" height="64" viewBox="0 0 64 64" fill="none" xmlns="http://www.w3.org/2000/svg">
<path d="M32 0L39.3952 4.2851H47.9654L52.2505 11.7495L59.7149 16.0346V24.6047L64 32L59.7149 39.3952V47.9654L52.2505 52.2505L47.9654 59.7149H39.3952L32 64L24.6047 59.7149H16.0346L11.7495 52.2505L4.2851 47.9654V39.3952L0 32L4.2851 24.6047V16.0346L11.7495 11.7495L16.0346 4.2851H24.6047L32 0Z" fill="#647EFF"/>
<path d="M32 55.4298C19.0756 55.4298 8.57019 44.9244 8.57019 32C8.57019 19.0756 19.0756 8.57019 32 8.57019C44.9244 8.57019 55.4298 19.0756 55.4298 32C55.4298 44.9244 44.9244 55.4298 32 55.4298ZM32 10.5745C20.1814 10.5745 10.5745 20.1814 10.5745 32C10.5745 43.8186 20.1814 53.4255 32 53.4255C43.8186 53.4255 53.4255 43.8186 53.4255 32C53.4255 20.1814 43.8186 10.5745 32 10.5745Z" fill="white"/>
<path d="M29.4428 40.7084L19.2829 32.622C18.4536 31.9309 18.3153 30.756 19.0065 29.9266C19.6976 29.0972 20.8726 28.959 21.702 29.6501L30.4104 36.6307L42.0216 23.6372C42.7127 22.8769 43.9568 22.8078 44.7171 23.4989C45.4773 24.1901 45.5464 25.4341 44.8553 26.1944L32.0691 40.5011C31.378 41.2614 30.203 41.3305 29.4428 40.7084Z" fill="#F8FCC4"/>
</svg>
