<svg width="66" height="58" viewBox="0 0 66 58" fill="none" xmlns="http://www.w3.org/2000/svg">
<path d="M58.125 19.1876C58.125 19.1876 57.3281 16.9532 55.0937 17.7345L17.2968 31.1095C17.2968 31.1095 15.0625 31.9063 15.8437 34.1407L22.9062 54.0938C22.9062 54.0938 23.7031 56.3282 25.9375 55.547L63.7343 42.172C63.7343 42.172 65.9687 41.3751 65.1875 39.1407L58.125 19.1876Z" fill="#474B4F"/>
<path d="M45.5937 8.15629C45.5937 8.15629 44.0625 6.34379 42.25 7.85941L9.68748 35.2032C9.68748 35.2032 7.87498 36.7344 9.3906 38.5469L23 54.7657C23 54.7657 24.5312 56.5782 26.3437 55.0625L58.9219 27.7344C58.9219 27.7344 60.7344 26.2032 59.2187 24.3907L45.5937 8.15629Z" fill="#FFDE40"/>
<path d="M29.1719 1.20314C29.1719 1.20314 27.1094 0.03127 25.9375 2.09377L3.85939 41.1406C3.85939 41.1406 2.68752 43.2031 4.75002 44.375L23.1719 54.7969C23.1719 54.7969 25.2344 55.9688 26.4063 53.9063L48.4844 14.875C48.4844 14.875 49.6563 12.8125 47.5938 11.6406L29.1719 1.20314Z" fill="#EF5BA1"/>
<path d="M3.03125 2.32812C3.03125 2.32812 0.65625 2.32812 0.65625 4.70312V54.8437C0.65625 54.8437 0.65625 57.2188 3.03125 57.2188H24.2031C24.2031 57.2188 26.5781 57.2187 26.5781 54.8437V4.70312C26.5781 4.70312 26.5781 2.32812 24.2031 2.32812H3.03125Z" fill="#00BFF3"/>
<path d="M21.6563 54.375C22.5313 54.375 23.2344 53.6719 23.2344 52.7969C23.2344 51.9219 22.5313 51.2188 21.6563 51.2188C20.7813 51.2188 20.0781 51.9219 20.0781 52.7969C20.0625 53.6719 20.7813 54.375 21.6563 54.375Z" fill="white"/>
</svg>
