<svg width="56" height="56" viewBox="0 0 56 56" fill="none" xmlns="http://www.w3.org/2000/svg">
<g clip-path="url(#clip0_315_3864)">
<path d="M28 56C12.5384 56 0 43.4616 0 28C0 12.5384 12.5384 0 28 0C43.4616 0 56 12.5384 56 28C56 43.4616 43.4616 56 28 56Z" fill="#25D366"/>
<path fill-rule="evenodd" clip-rule="evenodd" d="M41.0982 14.9629C37.6262 11.4853 33.0006 9.57005 28.0782 9.56445C17.9366 9.56445 9.67659 17.8189 9.67659 27.9661C9.67659 31.2085 10.5222 34.3781 12.135 37.1669L9.52539 46.7037L19.2806 44.1445C21.9686 45.6117 24.9926 46.3845 28.0726 46.3845H28.0782C38.2198 46.3845 46.4742 38.1301 46.4798 27.9829C46.4854 23.0661 44.5758 18.4405 41.0982 14.9629ZM28.0838 43.2765H28.0782C25.3342 43.2765 22.6406 42.5373 20.2942 41.1429L19.7342 40.8125L13.9438 42.3301L15.4894 36.6853L15.1254 36.1085C13.5966 33.6725 12.7846 30.8613 12.7846 27.9661C12.7902 19.5325 19.6502 12.6725 28.0894 12.6725C32.1774 12.6725 36.0134 14.2685 38.903 17.1581C41.7926 20.0477 43.383 23.8949 43.3774 27.9773C43.3774 36.4165 36.5118 43.2765 28.0838 43.2765ZM36.4726 31.8189C36.0134 31.5893 33.751 30.4749 33.331 30.3237C32.911 30.1725 32.603 30.0941 32.295 30.5533C31.987 31.0125 31.1078 32.0485 30.839 32.3565C30.5702 32.6645 30.3014 32.7037 29.8422 32.4741C29.383 32.2445 27.899 31.7573 26.1462 30.1893C24.7798 28.9685 23.8558 27.4621 23.587 27.0029C23.3182 26.5437 23.559 26.2917 23.7886 26.0621C23.9958 25.8549 24.2478 25.5245 24.4774 25.2557C24.707 24.9869 24.7854 24.7965 24.9366 24.4885C25.0878 24.1805 25.015 23.9117 24.8974 23.6821C24.7798 23.4525 23.8614 21.1901 23.4806 20.2661C23.1054 19.3701 22.7302 19.4933 22.4446 19.4765C22.1758 19.4653 21.8678 19.4597 21.5654 19.4597C21.2574 19.4597 20.759 19.5773 20.339 20.0365C19.919 20.4957 18.7318 21.6101 18.7318 23.8725C18.7318 26.1349 20.3782 28.3245 20.6078 28.6269C20.8374 28.9349 23.8502 33.5773 28.4646 35.5709C29.5622 36.0469 30.419 36.3269 31.0854 36.5397C32.1886 36.8925 33.191 36.8421 33.9806 36.7245C34.8654 36.5901 36.7022 35.6101 37.083 34.5405C37.4638 33.4653 37.4638 32.5469 37.3518 32.3565C37.2398 32.1661 36.9318 32.0541 36.4726 31.8189Z" fill="white"/>
</g>
<defs>
<clipPath id="clip0_315_3864">
<rect width="56" height="56" fill="white"/>
</clipPath>
</defs>
</svg>
