<svg width="80" height="80" viewBox="0 0 80 80" fill="none" xmlns="http://www.w3.org/2000/svg">
<path d="M37.5 29.5016H44.5V34.7516C44.5 35.2157 44.3156 35.6608 43.9874 35.989C43.6592 36.3172 43.2141 36.5016 42.75 36.5016H39.25C38.7859 36.5016 38.3408 36.3172 38.0126 35.989C37.6844 35.6608 37.5 35.2157 37.5 34.7516V29.5016Z" fill="#B0EAD4"/>
<path d="M48 52.2516H34C32.6076 52.2516 31.2723 51.6985 30.2877 50.7139C29.3031 49.7293 28.75 48.394 28.75 47.0016V33.0016C28.75 31.6092 29.3031 30.2738 30.2877 29.2893C31.2723 28.3047 32.6076 27.7516 34 27.7516H48C49.3924 27.7516 50.7277 28.3047 51.7123 29.2893C52.6969 30.2738 53.25 31.6092 53.25 33.0016V47.0016C53.25 48.394 52.6969 49.7293 51.7123 50.7139C50.7277 51.6985 49.3924 52.2516 48 52.2516ZM34 31.2516C33.5359 31.2516 33.0908 31.436 32.7626 31.7642C32.4344 32.0923 32.25 32.5375 32.25 33.0016V47.0016C32.25 47.4657 32.4344 47.9108 32.7626 48.239C33.0908 48.5672 33.5359 48.7516 34 48.7516H48C48.4641 48.7516 48.9093 48.5672 49.2374 48.239C49.5656 47.9108 49.75 47.4657 49.75 47.0016V33.0016C49.75 32.5375 49.5656 32.0923 49.2374 31.7642C48.9093 31.436 48.4641 31.2516 48 31.2516H34Z" fill="white"/>
<path d="M39.25 45.2516H37.5C37.0359 45.2516 36.5908 45.0672 36.2626 44.739C35.9344 44.4108 35.75 43.9657 35.75 43.5016C35.75 43.0375 35.9344 42.5923 36.2626 42.2641C36.5908 41.936 37.0359 41.7516 37.5 41.7516H39.25C39.7141 41.7516 40.1592 41.936 40.4874 42.2641C40.8156 42.5923 41 43.0375 41 43.5016C41 43.9657 40.8156 44.4108 40.4874 44.739C40.1592 45.0672 39.7141 45.2516 39.25 45.2516Z" fill="white"/>
<path d="M65.5 54.4217L63.75 61.4217C63.675 61.7211 63.5223 61.9953 63.3071 62.2166C63.092 62.4379 62.8222 62.5984 62.525 62.6817C62.3557 62.7366 62.1778 62.7603 62 62.7517C61.7697 62.753 61.5414 62.7089 61.3282 62.6218C61.1149 62.5347 60.921 62.4064 60.7575 62.2442L59.4975 61.0017C58.0587 62.291 56.4864 63.4233 54.8075 64.3792L53.915 64.8517C49.929 66.933 45.4967 68.0141 41 68.0017C33.5739 68.0017 26.452 65.0517 21.201 59.8007C15.95 54.5497 13 47.4278 13 40.0017C12.9993 37.8147 13.2578 35.6354 13.77 33.5092C13.905 33.0901 14.193 32.7373 14.5766 32.5212C14.9601 32.305 15.4111 32.2414 15.8395 32.343C16.2679 32.4446 16.6422 32.7039 16.8879 33.0692C17.1336 33.4346 17.2325 33.8791 17.165 34.3142C16.7243 36.178 16.5011 38.0865 16.5 40.0017C16.4987 44.2876 17.6218 48.4988 19.757 52.2149C21.8923 55.931 24.965 59.022 28.6684 61.1792C32.3718 63.3364 36.5763 64.4844 40.8621 64.5085C45.1479 64.5327 49.365 63.4321 53.0925 61.3167L53.25 61.2117C54.5966 60.4415 55.8629 59.5387 57.03 58.5167L55.5075 56.9942C55.2826 56.7697 55.123 56.4882 55.0459 56.1799C54.9688 55.8716 54.9772 55.5481 55.07 55.2442C55.1533 54.947 55.3138 54.6772 55.5351 54.4621C55.7564 54.2469 56.0306 54.0942 56.33 54.0192L63.33 52.2692C63.6294 52.1829 63.9463 52.1782 64.2482 52.2554C64.55 52.3326 64.8258 52.4889 65.047 52.7083C65.2682 52.9278 65.4268 53.2022 65.5064 53.5034C65.586 53.8046 65.5838 54.1216 65.5 54.4217Z" fill="white"/>
<path d="M68.9999 40.0018C69.0006 42.1888 68.7421 44.3681 68.2299 46.4943C68.1376 46.8858 67.9131 47.2335 67.5944 47.479C67.2756 47.7244 66.8821 47.8525 66.4799 47.8418C66.3464 47.86 66.211 47.86 66.0774 47.8418C65.628 47.7337 65.2396 47.4523 64.9969 47.0588C64.7543 46.6653 64.6772 46.1919 64.7824 45.7418C65.2449 43.863 65.4857 41.9366 65.4999 40.0018C65.5012 35.7159 64.3782 31.5047 62.2429 27.7886C60.1077 24.0724 57.035 20.9815 53.3316 18.8243C49.6282 16.667 45.4237 15.5191 41.1379 15.4949C36.8521 15.4708 32.6349 16.5714 28.9074 18.6868C27.5014 19.4878 26.1819 20.432 24.9699 21.5043L26.4924 23.0093C26.7174 23.2338 26.877 23.5153 26.954 23.8236C27.0311 24.1319 27.0228 24.4553 26.9299 24.7593C26.8466 25.0564 26.6861 25.3263 26.4649 25.5414C26.2436 25.7565 25.9693 25.9093 25.6699 25.9843L18.6699 27.7343L18.2499 27.7518C18.0196 27.7531 17.7913 27.709 17.5781 27.6219C17.3649 27.5348 17.171 27.4065 17.0074 27.2443C16.7795 27.0216 16.6166 26.741 16.5364 26.4326C16.4562 26.1242 16.4618 25.7998 16.5524 25.4943L18.3024 18.4943C18.3801 18.1981 18.5341 17.9275 18.749 17.7095C18.964 17.4914 19.2324 17.3336 19.5274 17.2518C19.8314 17.1589 20.1549 17.1506 20.4632 17.2277C20.7715 17.3047 21.053 17.4643 21.2774 17.6893L22.4849 19.0018C23.9352 17.7238 25.5126 16.598 27.1924 15.6418C31.452 13.2273 36.2703 11.972 41.1666 12.0011C46.0628 12.0302 50.8658 13.3428 55.0964 15.8078C59.3269 18.2728 62.8371 21.8042 65.2768 26.0494C67.7164 30.2947 69.0001 35.1054 68.9999 40.0018Z" fill="white"/>
</svg>
